<mxfile host="app.diagrams.net" modified="2022-07-13T16:14:59.555Z" agent="5.0 (Windows NT 10.0; Win64; x64) AppleWebKit/537.36 (KHTML, like Gecko) Chrome/103.0.0.0 Safari/537.36" etag="o_EuxpL6KtQ5BBMXq3VS" version="20.0.4" type="github">
  <diagram id="0ZP30sV3yEi4wlxD2MXa" name="Page-2">
    <mxGraphModel dx="3474" dy="4150" grid="1" gridSize="10" guides="1" tooltips="1" connect="1" arrows="1" fold="1" page="1" pageScale="1" pageWidth="827" pageHeight="1169" math="0" shadow="0">
      <root>
        <mxCell id="0" />
        <mxCell id="1" parent="0" />
        <mxCell id="fpddxvLAkWClroHugJhI-1" value="&lt;p style=&quot;margin:0px;margin-top:4px;text-align:center;&quot;&gt;&lt;i&gt;&amp;lt;&amp;lt;Interface&amp;gt;&amp;gt;&lt;/i&gt;&lt;br&gt;&lt;b&gt;IProduct&lt;/b&gt;&lt;/p&gt;&lt;hr size=&quot;1&quot;&gt;&lt;p style=&quot;margin:0px;margin-left:4px;&quot;&gt;+ get Id: Guid&lt;br&gt;+ get Name: string&lt;/p&gt;&lt;p style=&quot;margin:0px;margin-left:4px;&quot;&gt;+ get Price: decimal&lt;/p&gt;&lt;hr size=&quot;1&quot;&gt;&lt;p style=&quot;margin:0px;margin-left:4px;&quot;&gt;+ ChangePrice(percent : int): void&lt;br&gt;&lt;/p&gt;" style="verticalAlign=top;align=left;overflow=fill;fontSize=12;fontFamily=Helvetica;html=1;" vertex="1" parent="1">
          <mxGeometry x="1060" y="-840" width="200" height="130" as="geometry" />
        </mxCell>
        <mxCell id="nEi5C4hoQEMpv7T7Uy6V-1" value="&lt;p style=&quot;margin:0px;margin-top:4px;text-align:center;&quot;&gt;&lt;b&gt;AbstactDeveloper {Abstract}&lt;/b&gt;&lt;br&gt;&lt;/p&gt;&lt;hr size=&quot;1&quot;&gt;&lt;p style=&quot;margin: 0px 0px 0px 4px;&quot;&gt;- Id: Guid&lt;br&gt;- Name: string&lt;/p&gt;&lt;span style=&quot;background-color: initial;&quot;&gt;&amp;nbsp;- Price: decimal&lt;/span&gt;&lt;br&gt;&lt;p style=&quot;margin: 0px 0px 0px 4px;&quot;&gt;- Weight: double&amp;nbsp;&lt;/p&gt;&lt;hr size=&quot;1&quot;&gt;&lt;p style=&quot;margin:0px;margin-left:4px;&quot;&gt;+ CreateProduct(): IProduct&lt;br&gt;&lt;/p&gt;" style="verticalAlign=top;align=left;overflow=fill;fontSize=12;fontFamily=Helvetica;html=1;" vertex="1" parent="1">
          <mxGeometry x="40" y="-1110" width="240" height="150" as="geometry" />
        </mxCell>
        <mxCell id="nEi5C4hoQEMpv7T7Uy6V-2" value="&lt;p style=&quot;margin:0px;margin-top:4px;text-align:center;&quot;&gt;&lt;b&gt;Dairy&lt;/b&gt;&lt;b style=&quot;background-color: initial;&quot;&gt;Developer&lt;/b&gt;&lt;/p&gt;&lt;hr size=&quot;1&quot;&gt;&lt;p style=&quot;margin: 0px 0px 0px 4px;&quot;&gt;- Name: string&lt;/p&gt;&lt;p style=&quot;margin: 0px 0px 0px 4px;&quot;&gt;- Price: decimal&lt;br&gt;&lt;/p&gt;&lt;p style=&quot;margin: 0px 0px 0px 4px;&quot;&gt;- Weight: double&lt;/p&gt;&lt;p style=&quot;margin: 0px 0px 0px 4px;&quot;&gt;- StoragePeriod: DateTime&lt;/p&gt;&lt;p style=&quot;margin: 0px 0px 0px 4px;&quot;&gt;- IsDead : bool&lt;/p&gt;&lt;p style=&quot;margin: 0px 0px 0px 4px;&quot;&gt;&lt;span style=&quot;background-color: initial;&quot;&gt;- StorageTermHandlerEvent:&lt;/span&gt;&lt;/p&gt;&lt;span style=&quot;white-space: pre;&quot;&gt; &lt;/span&gt;&lt;span style=&quot;white-space: pre;&quot;&gt; &lt;/span&gt;&lt;span style=&quot;white-space: pre;&quot;&gt; &lt;/span&gt;&lt;span style=&quot;white-space: pre;&quot;&gt; &lt;/span&gt;StorageTermHandler&amp;nbsp;&lt;hr size=&quot;1&quot;&gt;&lt;p style=&quot;margin:0px;margin-left:4px;&quot;&gt;+ CreateProduct(): Dairy&lt;br&gt;&lt;/p&gt;" style="verticalAlign=top;align=left;overflow=fill;fontSize=12;fontFamily=Helvetica;html=1;" vertex="1" parent="1">
          <mxGeometry x="300" y="-690" width="240" height="160" as="geometry" />
        </mxCell>
        <mxCell id="nEi5C4hoQEMpv7T7Uy6V-3" value="&lt;p style=&quot;margin:0px;margin-top:4px;text-align:center;&quot;&gt;&lt;b&gt;Meat&lt;/b&gt;&lt;b style=&quot;background-color: initial;&quot;&gt;Developer&lt;/b&gt;&lt;/p&gt;&lt;hr size=&quot;1&quot;&gt;&lt;p style=&quot;margin: 0px 0px 0px 4px;&quot;&gt;- Name: string&lt;/p&gt;&lt;p style=&quot;margin: 0px 0px 0px 4px;&quot;&gt;- Price: decimal&lt;br&gt;&lt;/p&gt;&lt;p style=&quot;margin: 0px 0px 0px 4px;&quot;&gt;- Weight: double&lt;/p&gt;&lt;p style=&quot;margin: 0px 0px 0px 4px;&quot;&gt;- Category : Enum {readOnly}&lt;/p&gt;&lt;p style=&quot;margin: 0px 0px 0px 4px;&quot;&gt;- Type : Enum {readOnly}&lt;/p&gt;&lt;hr size=&quot;1&quot;&gt;&lt;p style=&quot;margin:0px;margin-left:4px;&quot;&gt;+ CreateProduct(): Meat&lt;br&gt;&lt;/p&gt;" style="verticalAlign=top;align=left;overflow=fill;fontSize=12;fontFamily=Helvetica;html=1;" vertex="1" parent="1">
          <mxGeometry x="300" y="-330" width="240" height="140" as="geometry" />
        </mxCell>
        <mxCell id="nEi5C4hoQEMpv7T7Uy6V-4" value="&lt;p style=&quot;margin:0px;margin-top:4px;text-align:center;&quot;&gt;&lt;b&gt;Product&lt;/b&gt;&lt;b style=&quot;background-color: initial;&quot;&gt;Developer&lt;/b&gt;&lt;/p&gt;&lt;hr size=&quot;1&quot;&gt;&lt;p style=&quot;margin: 0px 0px 0px 4px;&quot;&gt;- Name: string&lt;/p&gt;&lt;p style=&quot;margin: 0px 0px 0px 4px;&quot;&gt;- Price: decimal&lt;br&gt;&lt;/p&gt;&lt;p style=&quot;margin: 0px 0px 0px 4px;&quot;&gt;- Weight: double&lt;/p&gt;&lt;hr size=&quot;1&quot;&gt;&lt;p style=&quot;margin:0px;margin-left:4px;&quot;&gt;+ CreateProduct(): Product&lt;br&gt;&lt;/p&gt;" style="verticalAlign=top;align=left;overflow=fill;fontSize=12;fontFamily=Helvetica;html=1;" vertex="1" parent="1">
          <mxGeometry x="300" y="-490" width="240" height="130" as="geometry" />
        </mxCell>
        <mxCell id="nEi5C4hoQEMpv7T7Uy6V-5" value="" style="endArrow=block;dashed=1;endFill=0;endSize=12;html=1;rounded=0;entryX=0.5;entryY=1;entryDx=0;entryDy=0;exitX=0.003;exitY=0.539;exitDx=0;exitDy=0;exitPerimeter=0;" edge="1" parent="1" target="nEi5C4hoQEMpv7T7Uy6V-1" source="nEi5C4hoQEMpv7T7Uy6V-4">
          <mxGeometry width="160" relative="1" as="geometry">
            <mxPoint x="250" y="-570" as="sourcePoint" />
            <mxPoint x="140" y="-920" as="targetPoint" />
            <Array as="points">
              <mxPoint x="220" y="-420" />
              <mxPoint x="160" y="-420" />
            </Array>
          </mxGeometry>
        </mxCell>
        <mxCell id="nEi5C4hoQEMpv7T7Uy6V-6" value="" style="endArrow=block;dashed=1;endFill=0;endSize=12;html=1;rounded=0;exitX=0;exitY=0.5;exitDx=0;exitDy=0;edgeStyle=orthogonalEdgeStyle;" edge="1" parent="1" source="nEi5C4hoQEMpv7T7Uy6V-3">
          <mxGeometry width="160" relative="1" as="geometry">
            <mxPoint x="159.66000000000008" y="-830" as="sourcePoint" />
            <mxPoint x="160" y="-960" as="targetPoint" />
            <Array as="points">
              <mxPoint x="160" y="-260" />
            </Array>
          </mxGeometry>
        </mxCell>
        <mxCell id="nEi5C4hoQEMpv7T7Uy6V-7" value="" style="endArrow=block;dashed=1;endFill=0;endSize=12;html=1;rounded=0;exitX=0;exitY=0.5;exitDx=0;exitDy=0;edgeStyle=orthogonalEdgeStyle;entryX=0.5;entryY=1;entryDx=0;entryDy=0;" edge="1" parent="1" source="nEi5C4hoQEMpv7T7Uy6V-2" target="nEi5C4hoQEMpv7T7Uy6V-1">
          <mxGeometry width="160" relative="1" as="geometry">
            <mxPoint x="420" y="-830" as="sourcePoint" />
            <mxPoint x="110" y="-930" as="targetPoint" />
            <Array as="points">
              <mxPoint x="160" y="-610" />
            </Array>
          </mxGeometry>
        </mxCell>
        <mxCell id="VibXkcdwwvkdJ18-XqdP-1" value="&lt;p style=&quot;margin:0px;margin-top:4px;text-align:center;&quot;&gt;&lt;b&gt;Product&lt;/b&gt;&lt;/p&gt;&lt;hr size=&quot;1&quot;&gt;&lt;p style=&quot;margin: 0px 0px 0px 4px;&quot;&gt;+ get Id: Guid&lt;br&gt;+ get Name: string&lt;/p&gt;&lt;p style=&quot;margin: 0px 0px 0px 4px;&quot;&gt;+ get Price: decimal&lt;br&gt;&lt;/p&gt;&lt;p style=&quot;margin: 0px 0px 0px 4px;&quot;&gt;+ get Weight: double&lt;/p&gt;&lt;hr size=&quot;1&quot;&gt;&lt;p style=&quot;margin:0px;margin-left:4px;&quot;&gt;+ ChangePrice(percent : int): void&lt;br&gt;&lt;/p&gt;" style="verticalAlign=top;align=left;overflow=fill;fontSize=12;fontFamily=Helvetica;html=1;" vertex="1" parent="1">
          <mxGeometry x="610" y="-490" width="250" height="130" as="geometry" />
        </mxCell>
        <mxCell id="VibXkcdwwvkdJ18-XqdP-2" value="&lt;p style=&quot;margin:0px;margin-top:4px;text-align:center;&quot;&gt;&lt;b&gt;Dairy&lt;/b&gt;&lt;/p&gt;&lt;hr size=&quot;1&quot;&gt;&lt;p style=&quot;margin: 0px 0px 0px 4px;&quot;&gt;+ get Id: Guid&lt;br&gt;+ get Name: string&lt;/p&gt;&lt;p style=&quot;margin: 0px 0px 0px 4px;&quot;&gt;+ get Price: decimal&lt;br&gt;&lt;/p&gt;&lt;p style=&quot;margin: 0px 0px 0px 4px;&quot;&gt;+ get Weight: double&lt;/p&gt;&lt;p style=&quot;margin: 0px 0px 0px 4px;&quot;&gt;+ get StoragePeriod: DateTime&lt;/p&gt;&lt;p style=&quot;margin: 0px 0px 0px 4px;&quot;&gt;+ get IsDead : bool&lt;/p&gt;&lt;hr size=&quot;1&quot;&gt;&lt;p style=&quot;margin:0px;margin-left:4px;&quot;&gt;+ ChangePrice(percent : int): void&lt;br&gt;&lt;/p&gt;" style="verticalAlign=top;align=left;overflow=fill;fontSize=12;fontFamily=Helvetica;html=1;" vertex="1" parent="1">
          <mxGeometry x="610" y="-690" width="250" height="160" as="geometry" />
        </mxCell>
        <mxCell id="VibXkcdwwvkdJ18-XqdP-3" value="&lt;p style=&quot;margin:0px;margin-top:4px;text-align:center;&quot;&gt;&lt;b&gt;Meat&lt;/b&gt;&lt;/p&gt;&lt;hr size=&quot;1&quot;&gt;&lt;p style=&quot;margin: 0px 0px 0px 4px;&quot;&gt;+ get Id: Guid&lt;br&gt;+ get Name: string&lt;/p&gt;&lt;p style=&quot;margin: 0px 0px 0px 4px;&quot;&gt;+ get Price: decimal&lt;br&gt;&lt;/p&gt;&lt;p style=&quot;margin: 0px 0px 0px 4px;&quot;&gt;+ get Weight: double&lt;/p&gt;&lt;p style=&quot;margin: 0px 0px 0px 4px;&quot;&gt;+ get Category : Enum&lt;/p&gt;&lt;p style=&quot;margin: 0px 0px 0px 4px;&quot;&gt;+ get Type : Enum&lt;/p&gt;&lt;hr size=&quot;1&quot;&gt;&lt;p style=&quot;margin:0px;margin-left:4px;&quot;&gt;+ ChangePrice(percent : int): void&lt;br&gt;&lt;/p&gt;&lt;p style=&quot;margin:0px;margin-left:4px;&quot;&gt;+ ChangePriceByType(percent : int): void&lt;br&gt;&lt;/p&gt;" style="verticalAlign=top;align=left;overflow=fill;fontSize=12;fontFamily=Helvetica;html=1;" vertex="1" parent="1">
          <mxGeometry x="610" y="-330" width="250" height="160" as="geometry" />
        </mxCell>
        <mxCell id="fgG0hOn3hZWnJ0psPJnD-1" value="" style="endArrow=block;dashed=1;endFill=0;endSize=12;html=1;rounded=0;edgeStyle=orthogonalEdgeStyle;exitX=1;exitY=0.5;exitDx=0;exitDy=0;entryX=0;entryY=0.5;entryDx=0;entryDy=0;" edge="1" parent="1" source="VibXkcdwwvkdJ18-XqdP-3" target="fpddxvLAkWClroHugJhI-1">
          <mxGeometry width="160" relative="1" as="geometry">
            <mxPoint x="1060" y="-334" as="sourcePoint" />
            <mxPoint x="990" y="-630" as="targetPoint" />
          </mxGeometry>
        </mxCell>
        <mxCell id="fgG0hOn3hZWnJ0psPJnD-2" value="" style="endArrow=block;dashed=1;endFill=0;endSize=12;html=1;rounded=0;edgeStyle=orthogonalEdgeStyle;exitX=1;exitY=0.5;exitDx=0;exitDy=0;entryX=0;entryY=0.5;entryDx=0;entryDy=0;" edge="1" parent="1" source="VibXkcdwwvkdJ18-XqdP-1" target="fpddxvLAkWClroHugJhI-1">
          <mxGeometry width="160" relative="1" as="geometry">
            <mxPoint x="870" y="-50.00000000000023" as="sourcePoint" />
            <mxPoint x="960" y="-610" as="targetPoint" />
          </mxGeometry>
        </mxCell>
        <mxCell id="fgG0hOn3hZWnJ0psPJnD-3" value="" style="endArrow=block;dashed=1;endFill=0;endSize=12;html=1;rounded=0;edgeStyle=orthogonalEdgeStyle;exitX=1;exitY=0.5;exitDx=0;exitDy=0;entryX=0;entryY=0.5;entryDx=0;entryDy=0;" edge="1" parent="1" source="VibXkcdwwvkdJ18-XqdP-2" target="fpddxvLAkWClroHugJhI-1">
          <mxGeometry width="160" relative="1" as="geometry">
            <mxPoint x="870" y="-250.00000000000023" as="sourcePoint" />
            <mxPoint x="1060" y="-780" as="targetPoint" />
            <Array as="points">
              <mxPoint x="960" y="-610" />
              <mxPoint x="960" y="-775" />
            </Array>
          </mxGeometry>
        </mxCell>
        <mxCell id="fgG0hOn3hZWnJ0psPJnD-12" value="return" style="html=1;verticalAlign=bottom;endArrow=open;dashed=1;endSize=8;rounded=0;entryX=0;entryY=0.5;entryDx=0;entryDy=0;exitX=1;exitY=0.5;exitDx=0;exitDy=0;" edge="1" parent="1" source="nEi5C4hoQEMpv7T7Uy6V-2" target="VibXkcdwwvkdJ18-XqdP-2">
          <mxGeometry relative="1" as="geometry">
            <mxPoint x="570" y="-490" as="sourcePoint" />
            <mxPoint x="490" y="-490" as="targetPoint" />
          </mxGeometry>
        </mxCell>
        <mxCell id="fgG0hOn3hZWnJ0psPJnD-13" value="return" style="html=1;verticalAlign=bottom;endArrow=open;dashed=1;endSize=8;rounded=0;entryX=0;entryY=0.5;entryDx=0;entryDy=0;exitX=1;exitY=0.5;exitDx=0;exitDy=0;" edge="1" parent="1">
          <mxGeometry relative="1" as="geometry">
            <mxPoint x="540" y="-420" as="sourcePoint" />
            <mxPoint x="610" y="-420" as="targetPoint" />
          </mxGeometry>
        </mxCell>
        <mxCell id="fgG0hOn3hZWnJ0psPJnD-14" value="return" style="html=1;verticalAlign=bottom;endArrow=open;dashed=1;endSize=8;rounded=0;entryX=0;entryY=0.5;entryDx=0;entryDy=0;exitX=1;exitY=0.5;exitDx=0;exitDy=0;" edge="1" parent="1">
          <mxGeometry relative="1" as="geometry">
            <mxPoint x="540" y="-260.43" as="sourcePoint" />
            <mxPoint x="610" y="-260.43" as="targetPoint" />
          </mxGeometry>
        </mxCell>
        <mxCell id="fgG0hOn3hZWnJ0psPJnD-16" style="edgeStyle=orthogonalEdgeStyle;rounded=0;orthogonalLoop=1;jettySize=auto;html=1;entryX=1;entryY=0.5;entryDx=0;entryDy=0;fontSize=26;" edge="1" parent="1" source="fgG0hOn3hZWnJ0psPJnD-15" target="nEi5C4hoQEMpv7T7Uy6V-1">
          <mxGeometry relative="1" as="geometry" />
        </mxCell>
        <mxCell id="fgG0hOn3hZWnJ0psPJnD-17" style="edgeStyle=orthogonalEdgeStyle;rounded=0;orthogonalLoop=1;jettySize=auto;html=1;entryX=0.5;entryY=0;entryDx=0;entryDy=0;fontSize=26;" edge="1" parent="1" source="fgG0hOn3hZWnJ0psPJnD-15" target="fpddxvLAkWClroHugJhI-1">
          <mxGeometry relative="1" as="geometry" />
        </mxCell>
        <mxCell id="TJx1uiVwH2ofa4E2WVFN-2" style="edgeStyle=orthogonalEdgeStyle;rounded=0;orthogonalLoop=1;jettySize=auto;html=1;fontSize=26;" edge="1" parent="1" source="fgG0hOn3hZWnJ0psPJnD-15">
          <mxGeometry relative="1" as="geometry">
            <mxPoint x="760" y="-1240" as="targetPoint" />
          </mxGeometry>
        </mxCell>
        <mxCell id="fgG0hOn3hZWnJ0psPJnD-15" value="&lt;p style=&quot;line-height: 2.6;&quot;&gt;&lt;font style=&quot;font-size: 26px;&quot;&gt;Client code&lt;/font&gt;&lt;br&gt;&lt;/p&gt;" style="html=1;" vertex="1" parent="1">
          <mxGeometry x="620" y="-1115" width="280" height="160" as="geometry" />
        </mxCell>
        <mxCell id="TJx1uiVwH2ofa4E2WVFN-1" value="&lt;p style=&quot;margin:0px;margin-top:4px;text-align:center;&quot;&gt;&lt;b&gt;Storage&lt;/b&gt;&lt;/p&gt;&lt;hr size=&quot;1&quot;&gt;&lt;p style=&quot;margin: 0px 0px 0px 4px;&quot;&gt;+ products: Dictionary&amp;lt;Guid, Dictionary&amp;lt;IProduct, int&amp;gt;&amp;gt;&lt;br&gt;&lt;/p&gt;&lt;hr size=&quot;1&quot;&gt;&lt;p style=&quot;margin:0px;margin-left:4px;&quot;&gt;+ Add(product: IProduct): void&lt;br&gt;&lt;/p&gt;&lt;p style=&quot;margin:0px;margin-left:4px;&quot;&gt;+ Delete(product: IProduct): void&lt;/p&gt;&lt;p style=&quot;margin:0px;margin-left:4px;&quot;&gt;+ ChangePrice(product: IProduct, percent : int): void&lt;br&gt;&lt;/p&gt;&lt;p style=&quot;margin:0px;margin-left:4px;&quot;&gt;+ Sort(): void&lt;br&gt;&lt;/p&gt;&lt;p style=&quot;margin:0px;margin-left:4px;&quot;&gt;+ Find (product: T): IProduct&lt;/p&gt;" style="verticalAlign=top;align=left;overflow=fill;fontSize=12;fontFamily=Helvetica;html=1;" vertex="1" parent="1">
          <mxGeometry x="170" y="-1375" width="320" height="140" as="geometry" />
        </mxCell>
        <mxCell id="eX-GLuut5h8f43FQClKt-1" value="&lt;p style=&quot;margin:0px;margin-top:4px;text-align:center;&quot;&gt;&lt;b&gt;&lt;u&gt;ProductServise&lt;/u&gt;&lt;/b&gt;&lt;/p&gt;&lt;hr size=&quot;1&quot;&gt;&lt;p style=&quot;margin:0px;margin-left:4px;&quot;&gt;+ &lt;u&gt;PrintAllProducts &lt;/u&gt;(): void&lt;br&gt;&lt;/p&gt;&lt;p style=&quot;margin:0px;margin-left:4px;&quot;&gt;+ &lt;u&gt;PrintProduct&lt;/u&gt; (product : IProduct): void&lt;br&gt;&lt;/p&gt;&lt;p style=&quot;margin:0px;margin-left:4px;&quot;&gt;+&amp;nbsp;&lt;u&gt;OnFailRead (&lt;/u&gt;Storage store) void&lt;/p&gt;&lt;p style=&quot;margin:0px;margin-left:4px;&quot;&gt;+ &lt;u&gt;OnFiledRead &lt;/u&gt;() void&lt;/p&gt;&lt;p style=&quot;margin:0px;margin-left:4px;&quot;&gt;+ &lt;u&gt;AddByDialog&lt;/u&gt;() IProduct&lt;br&gt;&lt;/p&gt;&lt;p style=&quot;margin:0px;margin-left:4px;&quot;&gt;+&amp;nbsp;&lt;u&gt;AddByConsole&lt;/u&gt;() IProduct&lt;br&gt;&lt;/p&gt;&lt;span style=&quot;color: rgba(0, 0, 0, 0); font-family: monospace; font-size: 0px;&quot;&gt;%3CmxGraphModel%3E%3Croot%3E%3CmxCell%20id%3D%220%22%2F%3E%3CmxCell%20id%3D%221%22%20parent%3D%220%22%2F%3E%3CmxCell%20id%3D%222%22%20value%3D%22%26lt%3Bp%20style%3D%26quot%3Bmargin%3A0px%3Bmargin-top%3A4px%3Btext-align%3Acenter%3B%26quot%3B%26gt%3B%26lt%3Bb%26gt%3BMeat%26lt%3B%2Fb%26gt%3B%26lt%3B%2Fp%26gt%3B%26lt%3Bhr%20size%3D%26quot%3B1%26quot%3B%26gt%3B%26lt%3Bp%20style%3D%26quot%3Bmargin%3A%200px%200px%200px%204px%3B%26quot%3B%26gt%3B%2B%20get%20Id%3A%20Guid%26lt%3Bbr%26gt%3B%2B%20get%20Name%3A%20string%26lt%3B%2Fp%26gt%3B%26lt%3Bp%20style%3D%26quot%3Bmargin%3A%200px%200px%200px%204px%3B%26quot%3B%26gt%3B%2B%20get%20Price%3A%20decimal%26lt%3Bbr%26gt%3B%26lt%3B%2Fp%26gt%3B%26lt%3Bp%20style%3D%26quot%3Bmargin%3A%200px%200px%200px%204px%3B%26quot%3B%26gt%3B%2B%20get%20Weight%3A%20double%26lt%3B%2Fp%26gt%3B%26lt%3Bp%20style%3D%26quot%3Bmargin%3A%200px%200px%200px%204px%3B%26quot%3B%26gt%3B%2B%20get%20Category%20%3A%20Enum%26lt%3B%2Fp%26gt%3B%26lt%3Bp%20style%3D%26quot%3Bmargin%3A%200px%200px%200px%204px%3B%26quot%3B%26gt%3B%2B%20get%20Type%20%3A%20Enum%26lt%3B%2Fp%26gt%3B%26lt%3Bhr%20size%3D%26quot%3B1%26quot%3B%26gt%3B%26lt%3Bp%20style%3D%26quot%3Bmargin%3A0px%3Bmargin-left%3A4px%3B%26quot%3B%26gt%3B%2B%20ChangePrice(percent%20%3A%20int)%3A%20void%26lt%3Bbr%26gt%3B%26lt%3B%2Fp%26gt%3B%26lt%3Bp%20style%3D%26quot%3Bmargin%3A0px%3Bmargin-left%3A4px%3B%26quot%3B%26gt%3B%2B%20ChangePriceByType(percent%20%3A%20int)%3A%20void%26lt%3Bbr%26gt%3B%26lt%3B%2Fp%26gt%3B%22%20style%3D%22verticalAlign%3Dtop%3Balign%3Dleft%3Boverflow%3Dfill%3BfontSize%3D12%3BfontFamily%3DHelvetica%3Bhtml%3D1%3B%22%20vertex%3D%221%22%20parent%3D%221%22%3E%3CmxGeometry%20x%3D%2280%22%20y%3D%221120%22%20width%3D%22240%22%20height%3D%22170%22%20as%3D%22geometry%22%2F%3E%3C%2FmxCell%3E%3C%2Froot%3E%3C%2FmxGraphModel%3EStorage sto&lt;/span&gt;&lt;span style=&quot;color: rgba(0, 0, 0, 0); font-family: monospace; font-size: 0px;&quot;&gt;%3CmxGraphModel%3E%3Croot%3E%3CmxCell%20id%3D%220%22%2F%3E%3CmxCell%20id%3D%221%22%20parent%3D%220%22%2F%3E%3CmxCell%20id%3D%222%22%20value%3D%22%26lt%3Bp%20style%3D%26quot%3Bmargin%3A0px%3Bmargin-top%3A4px%3Btext-align%3Acenter%3B%26quot%3B%26gt%3B%26lt%3Bb%26gt%3BMeat%26lt%3B%2Fb%26gt%3B%26lt%3B%2Fp%26gt%3B%26lt%3Bhr%20size%3D%26quot%3B1%26quot%3B%26gt%3B%26lt%3Bp%20style%3D%26quot%3Bmargin%3A%200px%200px%200px%204px%3B%26quot%3B%26gt%3B%2B%20get%20Id%3A%20Guid%26lt%3Bbr%26gt%3B%2B%20get%20Name%3A%20string%26lt%3B%2Fp%26gt%3B%26lt%3Bp%20style%3D%26quot%3Bmargin%3A%200px%200px%200px%204px%3B%26quot%3B%26gt%3B%2B%20get%20Price%3A%20decimal%26lt%3Bbr%26gt%3B%26lt%3B%2Fp%26gt%3B%26lt%3Bp%20style%3D%26quot%3Bmargin%3A%200px%200px%200px%204px%3B%26quot%3B%26gt%3B%2B%20get%20Weight%3A%20double%26lt%3B%2Fp%26gt%3B%26lt%3Bp%20style%3D%26quot%3Bmargin%3A%200px%200px%200px%204px%3B%26quot%3B%26gt%3B%2B%20get%20Category%20%3A%20Enum%26lt%3B%2Fp%26gt%3B%26lt%3Bp%20style%3D%26quot%3Bmargin%3A%200px%200px%200px%204px%3B%26quot%3B%26gt%3B%2B%20get%20Type%20%3A%20Enum%26lt%3B%2Fp%26gt%3B%26lt%3Bhr%20size%3D%26quot%3B1%26quot%3B%26gt%3B%26lt%3Bp%20style%3D%26quot%3Bmargin%3A0px%3Bmargin-left%3A4px%3B%26quot%3B%26gt%3B%2B%20ChangePrice(percent%20%3A%20int)%3A%20void%26lt%3Bbr%26gt%3B%26lt%3B%2Fp%26gt%3B%26lt%3Bp%20style%3D%26quot%3Bmargin%3A0px%3Bmargin-left%3A4px%3B%26quot%3B%26gt%3B%2B%20ChangePriceByType(percent%20%3A%20int)%3A%20void%26lt%3Bbr%26gt%3B%26lt%3B%2Fp%26gt%3B%22%20style%3D%22verticalAlign%3Dtop%3Balign%3Dleft%3Boverflow%3Dfill%3BfontSize%3D12%3BfontFamily%3DHelvetica%3Bhtml%3D1%3B%22%20vertex%3D%221%22%20parent%3D%221%22%3E%3CmxGeometry%20x%3D%2280%22%20y%3D%221120%22%20width%3D%22240%22%20height%3D%22170%22%20as%3D%22geometry%22%2F%3E%3C%2FmxCell%3E%3C%2Froot%3E%3C%2FmxGraphModel%3E&lt;/span&gt;" style="verticalAlign=top;align=left;overflow=fill;fontSize=12;fontFamily=Helvetica;html=1;" vertex="1" parent="1">
          <mxGeometry x="600" y="-1370" width="320" height="130" as="geometry" />
        </mxCell>
        <mxCell id="eX-GLuut5h8f43FQClKt-3" value="" style="endArrow=block;endFill=1;html=1;edgeStyle=orthogonalEdgeStyle;align=left;verticalAlign=top;rounded=0;fontSize=26;exitX=1;exitY=0.5;exitDx=0;exitDy=0;entryX=0;entryY=0.5;entryDx=0;entryDy=0;" edge="1" parent="1" source="TJx1uiVwH2ofa4E2WVFN-1" target="eX-GLuut5h8f43FQClKt-1">
          <mxGeometry x="-1" relative="1" as="geometry">
            <mxPoint x="510" y="-1420" as="sourcePoint" />
            <mxPoint x="670" y="-1420" as="targetPoint" />
          </mxGeometry>
        </mxCell>
        <mxCell id="eX-GLuut5h8f43FQClKt-4" value="1" style="edgeLabel;resizable=0;html=1;align=left;verticalAlign=bottom;fontSize=26;" connectable="0" vertex="1" parent="eX-GLuut5h8f43FQClKt-3">
          <mxGeometry x="-1" relative="1" as="geometry" />
        </mxCell>
        <mxCell id="aLRIMD_B_tR9_D7d41h3-1" value="&lt;p style=&quot;margin:0px;margin-top:4px;text-align:center;text-decoration:underline;&quot;&gt;&lt;b&gt;Category:Enum&lt;/b&gt;&lt;/p&gt;&lt;hr&gt;&lt;p style=&quot;margin:0px;margin-left:8px;&quot;&gt;NaN = value1&lt;br&gt;TopGrade = value2&lt;br&gt;SecondGrade = value3&lt;/p&gt;" style="verticalAlign=top;align=left;overflow=fill;fontSize=12;fontFamily=Helvetica;html=1;" vertex="1" parent="1">
          <mxGeometry x="80" y="-1770" width="160" height="100" as="geometry" />
        </mxCell>
        <mxCell id="aLRIMD_B_tR9_D7d41h3-2" value="&lt;p style=&quot;margin:0px;margin-top:4px;text-align:center;text-decoration:underline;&quot;&gt;&lt;b&gt;Type:Enum&lt;/b&gt;&lt;/p&gt;&lt;hr&gt;&lt;p style=&quot;margin:0px;margin-left:8px;&quot;&gt;NaN= value1&lt;br&gt;Veal= value2&lt;br&gt;Pork= value3&lt;/p&gt;&lt;p style=&quot;margin:0px;margin-left:8px;&quot;&gt;Chicken= value4&lt;br&gt;&lt;/p&gt;&lt;p style=&quot;margin:0px;margin-left:8px;&quot;&gt;Lamb= value4\5&lt;br&gt;&lt;/p&gt;" style="verticalAlign=top;align=left;overflow=fill;fontSize=12;fontFamily=Helvetica;html=1;" vertex="1" parent="1">
          <mxGeometry x="320" y="-1770" width="160" height="110" as="geometry" />
        </mxCell>
        <mxCell id="aLRIMD_B_tR9_D7d41h3-3" value="&lt;p style=&quot;margin:0px;margin-top:4px;text-align:center;text-decoration:underline;&quot;&gt;&lt;b&gt;StorageTermHandler:delegate&lt;/b&gt;&lt;/p&gt;&lt;hr&gt;&lt;p style=&quot;margin:0px;margin-left:8px;&quot;&gt;&lt;br&gt;&lt;/p&gt;" style="verticalAlign=top;align=left;overflow=fill;fontSize=12;fontFamily=Helvetica;html=1;" vertex="1" parent="1">
          <mxGeometry x="560" y="-1770" width="280" height="40" as="geometry" />
        </mxCell>
        <mxCell id="aLRIMD_B_tR9_D7d41h3-4" value="&lt;p style=&quot;margin:0px;margin-top:4px;text-align:center;&quot;&gt;&lt;b&gt;FileReader&lt;/b&gt;&lt;/p&gt;&lt;hr size=&quot;1&quot;&gt;&lt;p style=&quot;margin: 0px 0px 0px 4px;&quot;&gt;- path: string&lt;/p&gt;&lt;p style=&quot;margin: 0px 0px 0px 4px;&quot;&gt;- rootPath: decimal&lt;/p&gt;&amp;nbsp;&lt;hr size=&quot;1&quot;&gt;&lt;p style=&quot;margin:0px;margin-left:4px;&quot;&gt;+ ReadLine (): string&lt;br&gt;&lt;/p&gt;&lt;p style=&quot;margin:0px;margin-left:4px;&quot;&gt;+ ReadToEnd (): List&amp;lt;string&amp;gt;&lt;br&gt;&lt;/p&gt;" style="verticalAlign=top;align=left;overflow=fill;fontSize=12;fontFamily=Helvetica;html=1;" vertex="1" parent="1">
          <mxGeometry x="950" y="-1770" width="240" height="130" as="geometry" />
        </mxCell>
        <mxCell id="aLRIMD_B_tR9_D7d41h3-5" value="&lt;p style=&quot;margin:0px;margin-top:4px;text-align:center;&quot;&gt;&lt;b&gt;FileLoger&lt;/b&gt;&lt;/p&gt;&lt;hr size=&quot;1&quot;&gt;&lt;p style=&quot;margin:0px;margin-left:4px;&quot;&gt;+ ParseProduct(): IProduct&lt;/p&gt;&lt;p style=&quot;margin:0px;margin-left:4px;&quot;&gt;+ AnalizeLog: string&lt;br&gt;&lt;/p&gt;&lt;p style=&quot;margin:0px;margin-left:4px;&quot;&gt;+ WriteLog: IProduct&lt;br&gt;&lt;/p&gt;&lt;p style=&quot;margin:0px;margin-left:4px;&quot;&gt;+ ReadProduct(): IProduct&lt;br&gt;&lt;/p&gt;&lt;p style=&quot;margin:0px;margin-left:4px;&quot;&gt;+ WriteProduct(): IProduct&lt;br&gt;&lt;/p&gt;" style="verticalAlign=top;align=left;overflow=fill;fontSize=12;fontFamily=Helvetica;html=1;" vertex="1" parent="1">
          <mxGeometry x="1090" y="-1580" width="240" height="130" as="geometry" />
        </mxCell>
        <mxCell id="aLRIMD_B_tR9_D7d41h3-6" value="&lt;p style=&quot;margin:0px;margin-top:4px;text-align:center;&quot;&gt;&lt;b&gt;FileWriter&lt;/b&gt;&lt;/p&gt;&lt;hr size=&quot;1&quot;&gt;&lt;p style=&quot;margin: 0px 0px 0px 4px;&quot;&gt;- path: string&lt;/p&gt;&lt;p style=&quot;margin: 0px 0px 0px 4px;&quot;&gt;- rootPath: decimal&lt;/p&gt;&amp;nbsp;&lt;hr size=&quot;1&quot;&gt;&lt;p style=&quot;margin:0px;margin-left:4px;&quot;&gt;+ WriteLine (product : string&lt;span style=&quot;background-color: initial;&quot;&gt;): void&lt;/span&gt;&lt;/p&gt;&lt;p style=&quot;margin:0px;margin-left:4px;&quot;&gt;+ Write (products : List&amp;lt;IProduct&amp;gt;): void&lt;br&gt;&lt;/p&gt;" style="verticalAlign=top;align=left;overflow=fill;fontSize=12;fontFamily=Helvetica;html=1;" vertex="1" parent="1">
          <mxGeometry x="1241" y="-1770" width="240" height="130" as="geometry" />
        </mxCell>
        <mxCell id="aLRIMD_B_tR9_D7d41h3-7" value="&lt;p style=&quot;margin:0px;margin-top:4px;text-align:center;&quot;&gt;&lt;b&gt;Check&lt;/b&gt;&lt;/p&gt;&lt;hr size=&quot;1&quot;&gt;&lt;p style=&quot;margin:0px;margin-left:4px;&quot;&gt;+ DisplayCheck(): void&lt;/p&gt;" style="verticalAlign=top;align=left;overflow=fill;fontSize=12;fontFamily=Helvetica;html=1;" vertex="1" parent="1">
          <mxGeometry x="1001" y="-1340" width="240" height="60" as="geometry" />
        </mxCell>
        <mxCell id="aLRIMD_B_tR9_D7d41h3-8" value="&lt;p style=&quot;margin:0px;margin-top:4px;text-align:center;&quot;&gt;&lt;b&gt;Buy&lt;/b&gt;&lt;/p&gt;&lt;hr size=&quot;1&quot;&gt;&lt;p style=&quot;margin: 0px 0px 0px 4px;&quot;&gt;- totalPrice: decimal&lt;/p&gt;&lt;p style=&quot;margin: 0px 0px 0px 4px;&quot;&gt;- totalWeight: double&lt;/p&gt;&lt;p style=&quot;margin: 0px 0px 0px 4px;&quot;&gt;- priducts: Dictionary&amp;lt;IProduct, int&amp;gt;&lt;br&gt;&lt;/p&gt;&amp;nbsp;&lt;hr size=&quot;1&quot;&gt;&lt;p style=&quot;margin:0px;margin-left:4px;&quot;&gt;+ Buy (product : IProduct&lt;span style=&quot;background-color: initial;&quot;&gt;): void&lt;/span&gt;&lt;/p&gt;" style="verticalAlign=top;align=left;overflow=fill;fontSize=12;fontFamily=Helvetica;html=1;" vertex="1" parent="1">
          <mxGeometry x="640" y="-1570" width="240" height="130" as="geometry" />
        </mxCell>
        <mxCell id="aLRIMD_B_tR9_D7d41h3-9" value="" style="endArrow=block;endFill=1;html=1;edgeStyle=orthogonalEdgeStyle;align=left;verticalAlign=top;rounded=0;fontSize=26;exitX=0.5;exitY=1;exitDx=0;exitDy=0;" edge="1" parent="1" source="aLRIMD_B_tR9_D7d41h3-8">
          <mxGeometry x="-1" relative="1" as="geometry">
            <mxPoint x="500" y="-1295" as="sourcePoint" />
            <mxPoint x="760" y="-1370" as="targetPoint" />
          </mxGeometry>
        </mxCell>
        <mxCell id="aLRIMD_B_tR9_D7d41h3-10" value="1" style="edgeLabel;resizable=0;html=1;align=left;verticalAlign=bottom;fontSize=26;" connectable="0" vertex="1" parent="aLRIMD_B_tR9_D7d41h3-9">
          <mxGeometry x="-1" relative="1" as="geometry">
            <mxPoint x="-20" y="40" as="offset" />
          </mxGeometry>
        </mxCell>
        <mxCell id="aLRIMD_B_tR9_D7d41h3-11" value="" style="endArrow=block;endFill=1;html=1;edgeStyle=orthogonalEdgeStyle;align=left;verticalAlign=top;rounded=0;fontSize=26;entryX=1.006;entryY=0.464;entryDx=0;entryDy=0;entryPerimeter=0;" edge="1" parent="1" target="eX-GLuut5h8f43FQClKt-1">
          <mxGeometry x="-1" relative="1" as="geometry">
            <mxPoint x="1000" y="-1310" as="sourcePoint" />
            <mxPoint x="1080" y="-1390" as="targetPoint" />
            <Array as="points">
              <mxPoint x="970" y="-1310" />
            </Array>
          </mxGeometry>
        </mxCell>
        <mxCell id="aLRIMD_B_tR9_D7d41h3-12" value="1" style="edgeLabel;resizable=0;html=1;align=left;verticalAlign=bottom;fontSize=26;" connectable="0" vertex="1" parent="aLRIMD_B_tR9_D7d41h3-11">
          <mxGeometry x="-1" relative="1" as="geometry">
            <mxPoint x="-20" as="offset" />
          </mxGeometry>
        </mxCell>
        <mxCell id="aLRIMD_B_tR9_D7d41h3-13" value="" style="endArrow=block;endFill=1;html=1;edgeStyle=orthogonalEdgeStyle;align=left;verticalAlign=top;rounded=0;fontSize=26;exitX=0;exitY=0.5;exitDx=0;exitDy=0;" edge="1" parent="1" source="aLRIMD_B_tR9_D7d41h3-5">
          <mxGeometry x="-1" relative="1" as="geometry">
            <mxPoint x="1010" y="-1300" as="sourcePoint" />
            <mxPoint x="920" y="-1310" as="targetPoint" />
            <Array as="points">
              <mxPoint x="980" y="-1515" />
              <mxPoint x="980" y="-1310" />
            </Array>
          </mxGeometry>
        </mxCell>
        <mxCell id="aLRIMD_B_tR9_D7d41h3-14" value="1" style="edgeLabel;resizable=0;html=1;align=left;verticalAlign=bottom;fontSize=26;" connectable="0" vertex="1" parent="aLRIMD_B_tR9_D7d41h3-13">
          <mxGeometry x="-1" relative="1" as="geometry">
            <mxPoint x="-20" as="offset" />
          </mxGeometry>
        </mxCell>
        <mxCell id="aLRIMD_B_tR9_D7d41h3-15" value="" style="endArrow=block;endFill=1;html=1;edgeStyle=orthogonalEdgeStyle;align=left;verticalAlign=top;rounded=0;fontSize=26;exitX=0.541;exitY=1.019;exitDx=0;exitDy=0;exitPerimeter=0;entryX=0.457;entryY=0;entryDx=0;entryDy=0;entryPerimeter=0;" edge="1" parent="1" source="aLRIMD_B_tR9_D7d41h3-4" target="aLRIMD_B_tR9_D7d41h3-5">
          <mxGeometry x="-1" relative="1" as="geometry">
            <mxPoint x="770" y="-1430" as="sourcePoint" />
            <mxPoint x="770" y="-1360" as="targetPoint" />
            <Array as="points">
              <mxPoint x="1080" y="-1600" />
              <mxPoint x="1200" y="-1600" />
            </Array>
          </mxGeometry>
        </mxCell>
        <mxCell id="aLRIMD_B_tR9_D7d41h3-17" value="" style="endArrow=block;endFill=1;html=1;edgeStyle=orthogonalEdgeStyle;align=left;verticalAlign=top;rounded=0;fontSize=26;exitX=0.5;exitY=1;exitDx=0;exitDy=0;" edge="1" parent="1" source="aLRIMD_B_tR9_D7d41h3-6">
          <mxGeometry x="-1" relative="1" as="geometry">
            <mxPoint x="1089.8400000000001" y="-1627.53" as="sourcePoint" />
            <mxPoint x="1200" y="-1580" as="targetPoint" />
            <Array as="points">
              <mxPoint x="1360" y="-1640" />
              <mxPoint x="1360" y="-1600" />
              <mxPoint x="1200" y="-1600" />
            </Array>
          </mxGeometry>
        </mxCell>
      </root>
    </mxGraphModel>
  </diagram>
</mxfile>
